Coordinates
version=1
nRows=22
nColumns=24
inDegrees=yes

Units are S.I. units (second, meters, Newtons, ...)
Angles are in degrees.

endheader
time	pelvis_tilt	pelvis_list	pelvis_rotation	pelvis_tx	pelvis_ty	pelvis_tz	hip_flexion_r	hip_adduction_r	hip_rotation_r	knee_angle_r	ankle_angle_r	subtalar_angle_r	mtp_angle_r	hip_flexion_l	hip_adduction_l	hip_rotation_l	knee_angle_l	ankle_angle_l	subtalar_angle_l	mtp_angle_l	lumbar_extension	lumbar_bending	lumbar_rotation
      1.65000000	     14.16982839	     -7.58781678	      3.22441070	     -0.21607614	      0.96374939	     -0.01804544	      3.63459085	      6.32331178	    -15.72754506	    -26.48291663	     12.94528851	    -19.70799638	     22.44033603	    -21.27581951	     -4.79825182	    -10.87797308	     -5.13003936	     19.85145316	    -12.77116045	    108.85186254	    -22.36751537	      8.04678409	      2.61644362
      1.65500000	     14.46219342	     -7.83539706	      3.58971504	     -0.21023487	      0.96342768	     -0.01824572	      2.96342555	      6.75777456	    -16.48759903	    -23.96740055	     12.68475712	    -18.98565332	     22.89132595	    -21.93940400	     -5.20390098	    -10.87736644	     -5.12078098	     20.22213241	    -12.52087519	    108.84108939	    -22.58539629	      8.44176556	      2.48456369
      1.66000000	     14.72911411	     -8.03672541	      3.93548723	     -0.20439516	      0.96298928	     -0.01839144	      2.31651398	      7.16334076	    -17.23106899	    -21.45071266	     12.37221199	    -18.13680928	     23.57506162	    -22.56568795	     -5.56360760	    -10.89630824	     -5.13554943	     20.63182783	    -12.26234437	    108.83567398	    -22.77686968	      8.78229600	      2.32042860
      1.66500000	     14.95212137	     -8.18693448	      4.26183229	     -0.19855224	      0.96241198	     -0.01847939	      1.72420585	      7.52726451	    -17.98256323	    -18.96284247	     12.06254333	    -17.13946852	     24.30213565	    -23.14468919	     -5.87120523	    -10.86401246	     -5.15418645	     20.99356135	    -12.04473897	    108.81868921	    -22.91922715	      9.05847304	      2.18408145
      1.67000000	     15.12937611	     -8.29329168	      4.58103454	     -0.19269132	      0.96171874	     -0.01850450	      1.17532647	      7.86529237	    -18.73458782	    -16.48091108	     11.76397879	    -16.01509131	     24.93102516	    -23.66527467	     -6.14142836	    -10.79462024	     -5.19253352	     21.30906585	    -11.85166155	    108.78875535	    -23.00807961	      9.28014570	      2.03971281
      1.67500000	     15.24156291	     -8.36436855	      4.86630850	     -0.18682129	      0.96085581	     -0.01842440	      0.70058648	      8.18331501	    -19.43137731	    -14.01480679	     11.24021743	    -14.98440163	     27.15749582	    -24.09678274	     -6.37863865	    -10.81544554	     -5.28314936	     21.73410982	    -11.48181975	    108.79066895	    -23.02943531	      9.44891592	      1.86977017
      1.68000000	     15.32706320	     -8.36340641	      5.15580296	     -0.18105773	      0.95990651	     -0.01832362	      0.27555248	      8.43965781	    -20.08063665	    -11.63048960	     10.85946891	    -13.80545007	     27.35077257	    -24.49213164	     -6.54131744	    -10.61194808	     -5.36776826	     22.06776821	    -11.47978157	    108.74741049	    -23.03500637	      9.53831488	      1.66966027
      1.68500000	     15.39624446	     -8.33791926	      5.36982879	     -0.17521552	      0.95885767	     -0.01811353	     -0.11129738	      8.66249348	    -20.71126992	     -9.36460269	     10.56276648	    -12.32568967	     27.72219626	    -24.89529604	     -6.65470449	    -10.57222166	     -5.44264699	     22.41293897	    -11.30693359	    108.69475975	    -23.02638606	      9.57748366	      1.52705056
      1.69000000	     15.38406458	     -8.24653006	      5.52196261	     -0.16946322	      0.95767614	     -0.01780046	     -0.35507679	      8.79784287	    -21.29198927	     -7.27018050	     10.23765496	    -10.80229401	     28.24313027	    -25.19563328	     -6.68062239	    -10.53922877	     -5.55717541	     22.74838659	    -11.15955872	    108.63615639	    -22.95106583	      9.52022140	      1.40517349
      1.69500000	     15.31934807	     -8.12527741	      5.63724827	     -0.16376567	      0.95637907	     -0.01740677	     -0.50688611	      8.89417474	    -21.79682699	     -5.30552426	      9.92033635	     -9.30153174	     28.83475641	    -25.43163799	     -6.66483634	    -10.47060159	     -5.69414780	     23.08823613	    -11.04067379	    108.57065843	    -22.83175393	      9.41490995	      1.29441375
      1.70000000	     15.20455514	     -7.97784895	      5.71827257	     -0.15811341	      0.95498968	     -0.01695169	     -0.56572987	      8.94662690	    -22.24169662	     -3.48823560	      9.62152031	     -7.81061795	     29.49410189	    -25.60508214	     -6.61086628	    -10.39493810	     -5.85500420	     23.41379891	    -10.94751009	    108.49049487	    -22.67184003	      9.26752370	      1.20646973
      1.70500000	     15.03461567	     -7.81386814	      5.77699217	     -0.15249109	      0.95352307	     -0.01644340	     -0.53543636	      8.96704163	    -22.61792289	     -1.80231822	      9.32279540	     -6.38955904	     30.13103605	    -25.70796523	     -6.53324381	    -10.30154961	     -6.04150144	     23.74183354	    -10.87204999	    108.40194918	    -22.45777971	      9.09211927	      1.11638649
      1.71000000	     14.84416864	     -7.63567431	      5.80880346	     -0.14690401	      0.95202226	     -0.01588064	     -0.45562853	      8.95789834	    -22.91979055	     -0.25082193	      9.02424212	     -5.05535257	     30.73559490	    -25.78538844	     -6.43191623	    -10.21459294	     -6.24016620	     24.04915727	    -10.81769008	    108.30171173	    -22.23411592	      8.89003829	      1.04927947
      1.71500000	     14.63260285	     -7.45862786	      5.82599874	     -0.14131642	      0.95049386	     -0.01529461	     -0.33283470	      8.93435365	    -23.15459103	      1.17390583	      8.73188092	     -3.82021930	     31.26543641	    -25.83598847	     -6.32662756	    -10.13702552	     -6.45328387	     24.35501693	    -10.76181490	    108.19886412	    -21.98979630	      8.68618648	      0.99192216
      1.72000000	     14.42115226	     -7.27460803	      5.83434773	     -0.13574186	      0.94897621	     -0.01467650	     -0.18948864	      8.88823039	    -23.33178097	      2.46196102	      8.46419456	     -2.68932784	     31.74914173	    -25.88190818	     -6.21453964	    -10.05936882	     -6.68030483	     24.63482833	    -10.70340369	    108.09140797	    -21.75159258	      8.47054152	      0.94849469
      1.72500000	     14.19339463	     -7.09166615	      5.84161799	     -0.13017204	      0.94746197	     -0.01405883	     -0.01408489	      8.82534858	    -23.44520479	      3.62414964	      8.20113601	     -1.69477150	     32.15765913	    -25.90048965	     -6.10376830	     -9.97478398	     -6.92554220	     24.90530387	    -10.64274841	    107.98646692	    -21.49827900	      8.25706217	      0.90109264
      1.73000000	     13.99552116	     -6.92407282	      5.85672278	     -0.12457248	      0.94600327	     -0.01345939	      0.14214429	      8.76599584	    -23.53790610	      4.65552329	      7.96795611	     -0.79687832	     32.52179065	    -25.95154368	     -6.01429752	     -9.89991619	     -7.17542077	     25.15184781	    -10.57041924	    107.88068284	    -21.27566080	      8.06830170	      0.86391853
      1.73500000	     13.78496958	     -6.78638702	      5.88749115	     -0.11893034	      0.94456769	     -0.01286731	      0.31931529	      8.72272987	    -23.56577680	      5.56446120	      7.73174815	     -0.09284466	     32.75025371	    -25.97733913	     -5.96518678	     -9.82285551	     -7.44703283	     25.36138216	    -10.49223092	    107.80552595	    -21.03065246	      7.91607924	      0.82498217
      1.74000000	     13.61169387	     -6.64576837	      5.93132278	     -0.11326896	      0.94321741	     -0.01233267	      0.47639570	      8.65721817	    -23.62599771	      6.31588080	      7.56288261	      0.59261411	     32.99843381	    -26.04470588	     -5.91899118	     -9.74170833	     -7.71566792	     25.58232963	    -10.38238304	    107.71817000	    -20.82701248	      7.77562317	      0.76916961
      1.74500000	     13.46736527	     -6.52495600	      5.99763391	     -0.10756310	      0.94195071	     -0.01182725	      0.61322466	      8.60089435	    -23.67685545	      6.93130283	      7.40411935	      1.13414087	     33.23218945	    -26.13871286	     -5.90573254	     -9.65546555	     -7.99152513	     25.78528431	    -10.27924975	    107.62905834	    -20.64965432	      7.66501733	      0.70504101
      1.75000000	     13.35119567	     -6.42267738	      6.05346164	     -0.10182260	      0.94078127	     -0.01132277	      0.71913839	      8.55133760	    -23.62050641	      7.42805943	      7.21946432	      1.43573426	     33.30172953	    -26.26942188	     -5.90679995	     -9.56704011	     -8.26025501	     25.90703074	    -10.21907617	    107.59947278	    -20.50053333	      7.57721638	      0.69088271
      1.75500000	     13.25652628	     -6.37563881	      6.19741301	     -0.09597327	      0.93967546	     -0.01095990	      0.82897485	      8.54329336	    -23.73148758	      7.75628703	      7.16177905	      1.82668658	     33.53971334	    -26.38787557	     -6.01197863	     -9.47180839	     -8.58721430	     26.09473248	    -10.01995267	    107.51499361	    -20.35034200	      7.58618974	      0.56414823
